# xmcd
# 
# Track frame offsets:
#     150
#     15273
#     27844
#     44666
#     57001
#     71682
#     86687
#     100672
#     116215
#     125398
#     137921
#     152204
#     169419
#     185168
#     201455
#     218097
#     230190
#     247362
#     259784
#     279067
# 
# Disc length: 3922
# 
# Revision: 0
# Processed by: cddbd v1.5.2PL0 Copyright (c) Steve Scherf et al.
# Submitted via: fre:ac v1.0.31
# 
DISCID=300f5014
DTITLE=Joe Diffie - A Thousand Winding Roads and Regular Joe
DYEAR=2014
DGENRE=Country
TTITLE0=Home
TTITLE1=If The Devil Danced (In Empty Pockets)
TTITLE2=If You Want Me To
TTITLE3=New Way (To Light Up An Old Flame)
TTITLE4=There Goes The Neighborhood
TTITLE5=Almost Home
TTITLE6=I Ain't Leavin' 'Til She's Gone
TTITLE7=Coolest Fool In Town
TTITLE8=Liquid Heartache
TTITLE9=Stranger In Your Eyes
TTITLE10=Startin' Over Blues
TTITLE11=I Just Don't Know
TTITLE12=Next Thing Smokin'
TTITLE13=Ain't That  Bad Enough
TTITLE14=Ships That Don't Come In
TTITLE15=Just A Regular Joe
TTITLE16=Is It Cold In Here
TTITLE17=Back To Back Heartaches
TTITLE18=You Made Me What I Am
TTITLE19=Goodnight Sweetheart
EXTD=Two original albums on one cd.\n(cd released and made in EU]\n
EXTT0=
EXTT1=
EXTT2=
EXTT3=
EXTT4=
EXTT5=
EXTT6=
EXTT7=
EXTT8=
EXTT9=
EXTT10=
EXTT11=
EXTT12=
EXTT13=
EXTT14=
EXTT15=
EXTT16=
EXTT17=
EXTT18=
EXTT19=
PLAYORDER=
